<?xml version="1.0" standalone="no"?>
<!DOCTYPE svg PUBLIC "-//W3C//DTD SVG 1.1//EN" "http://www.w3.org/Graphics/SVG/1.1/DTD/svg11.dtd">
<svg version="1.1" xmlns="http://www.w3.org/2000/svg" viewBox="0 0 233.2265625 241.12890625"
      width="466.453125" height="482.2578125"><!-- svg-source:excalidraw -->
      <metadata></metadata>
      <defs>
            <style class="style-fonts">
      </style>
      </defs>
      <rect x="0" y="0" width="233.2265625" height="241.12890625" fill="#ffffff"></rect>
      <g stroke-linecap="round"
            transform="translate(38.1015625 85.3984375) rotate(0 22.515625 23.470703125)">
            <path
                  d="M17.7 0.18 C22.21 -1.03, 29.15 0.7, 33.44 3.13 C37.73 5.56, 41.7 10.17, 43.41 14.76 C45.13 19.34, 45.28 25.92, 43.71 30.64 C42.14 35.37, 38.13 40.44, 33.99 43.09 C29.84 45.74, 23.58 47.26, 18.84 46.53 C14.1 45.79, 8.67 42.41, 5.55 38.69 C2.42 34.97, 0.18 29.26, 0.09 24.21 C0 19.15, 1.72 12.32, 5 8.37 C8.28 4.43, 17.14 1.77, 19.76 0.54 C22.38 -0.69, 20.78 0.73, 20.73 0.99 M19.14 0.57 C23.52 -0.47, 30.01 0.75, 34.17 3.3 C38.33 5.84, 42.49 10.98, 44.08 15.83 C45.68 20.67, 45.75 27.64, 43.76 32.37 C41.76 37.1, 36.56 41.82, 32.1 44.2 C27.65 46.58, 21.71 47.61, 17.04 46.65 C12.36 45.69, 6.97 42.44, 4.06 38.42 C1.14 34.4, -0.83 27.75, -0.44 22.55 C-0.06 17.34, 2.9 10.99, 6.36 7.21 C9.83 3.43, 18.13 0.96, 20.35 -0.11 C22.57 -1.19, 19.88 0.24, 19.7 0.76"
                  stroke="none" stroke-width="0" fill="#1e1e1e"></path>
            <path
                  d="M27.38 0.24 C31.88 1.03, 37.58 5.4, 40.55 9.48 C43.53 13.56, 45.42 19.72, 45.25 24.72 C45.08 29.72, 42.89 35.89, 39.56 39.49 C36.22 43.09, 30.04 45.75, 25.25 46.31 C20.46 46.88, 14.82 45.58, 10.84 42.87 C6.86 40.16, 2.93 34.85, 1.38 30.04 C-0.17 25.24, -0.29 18.54, 1.54 14.04 C3.37 9.54, 7.9 5.27, 12.34 3.06 C16.78 0.85, 25.52 1.02, 28.2 0.79 C30.87 0.56, 28.49 1.35, 28.38 1.7 M17.63 0.06 C21.94 -1.41, 28.25 -0.35, 32.5 2 C36.76 4.34, 41.3 9.58, 43.18 14.15 C45.06 18.71, 45.05 24.6, 43.78 29.39 C42.51 34.17, 39.49 39.93, 35.57 42.85 C31.65 45.77, 25.04 47.43, 20.26 46.91 C15.48 46.4, 10.24 43.38, 6.91 39.76 C3.58 36.15, 0.82 30.28, 0.28 25.23 C-0.26 20.17, 0.93 13.46, 3.68 9.43 C6.42 5.41, 14.6 2.57, 16.77 1.07 C18.95 -0.43, 16.48 0.18, 16.72 0.43"
                  stroke="#1e1e1e" stroke-width="2" fill="none"></path>
      </g>
      <g stroke-linecap="round"
            transform="translate(145.31640625 85.564453125) rotate(0 22.515625 24.5)">
            <path
                  d="M19.03 0.04 C23.43 -1.09, 29.82 1.12, 33.92 3.8 C38.02 6.48, 42.07 11.15, 43.62 16.11 C45.17 21.08, 44.87 28.63, 43.2 33.59 C41.54 38.55, 37.83 43.44, 33.64 45.89 C29.45 48.33, 22.77 49.28, 18.07 48.26 C13.36 47.24, 8.36 43.85, 5.43 39.78 C2.5 35.7, 0.43 29.01, 0.47 23.82 C0.51 18.64, 2.2 12.69, 5.66 8.65 C9.12 4.61, 18.41 0.98, 21.25 -0.42 C24.09 -1.83, 22.79 -0.21, 22.69 0.22 M22.87 0.74 C27.33 0.41, 32.74 2.05, 36.43 5.19 C40.11 8.32, 44.12 14.26, 44.97 19.53 C45.83 24.8, 44.1 32.04, 41.55 36.79 C39 41.53, 34.2 46.15, 29.69 47.98 C25.18 49.8, 18.95 49.66, 14.5 47.76 C10.05 45.86, 5.44 41, 2.99 36.56 C0.55 32.11, -0.94 26.21, -0.17 21.06 C0.6 15.92, 3.85 9.21, 7.61 5.68 C11.37 2.15, 19.96 0.71, 22.39 -0.13 C24.82 -0.97, 22.17 0.17, 22.2 0.63"
                  stroke="none" stroke-width="0" fill="#1e1e1e"></path>
            <path
                  d="M24.61 -0.27 C29.11 -0.11, 34.75 3.32, 38.06 7.13 C41.37 10.93, 44 17.42, 44.47 22.56 C44.95 27.7, 43.59 33.76, 40.91 37.97 C38.22 42.18, 32.97 46.39, 28.37 47.8 C23.77 49.2, 17.59 48.59, 13.3 46.4 C9.02 44.22, 4.73 39.31, 2.66 34.66 C0.59 30.01, -0.23 23.49, 0.88 18.53 C1.98 13.58, 5.32 8.02, 9.29 4.95 C13.25 1.88, 21.98 0.9, 24.66 0.11 C27.35 -0.69, 25.33 -0.16, 25.38 0.21 M22.98 0.11 C27.6 -0.03, 33.14 2.6, 36.64 5.99 C40.14 9.39, 43.04 15.41, 43.98 20.47 C44.92 25.52, 44.52 31.87, 42.29 36.31 C40.07 40.75, 35.28 45.34, 30.63 47.1 C25.99 48.85, 19.08 48.6, 14.41 46.83 C9.74 45.07, 4.92 40.96, 2.63 36.51 C0.34 32.05, -0.15 25.36, 0.69 20.1 C1.53 14.83, 4.05 8.27, 7.66 4.93 C11.28 1.59, 19.82 0.87, 22.38 0.06 C24.94 -0.76, 22.98 -0.26, 23.03 0.03"
                  stroke="#1e1e1e" stroke-width="2" fill="none"></path>
      </g>
      <g stroke-linecap="round" transform="translate(10 10) rotate(0 106.61328125 110.564453125)">
            <path
                  d="M133.75 27.75 C146.14 41.28, 158.78 53.88, 186.48 83.25 M133.75 27.75 C150.23 44.55, 167.62 62.11, 186.48 83.25 M186.48 83.25 C213.33 110.88, 211.54 112.49, 186.48 138.75 M186.48 83.25 C214.96 108.84, 214.88 110.12, 186.48 138.75 M186.48 138.75 C173.1 153.06, 162.13 165.32, 133.75 193.38 M186.48 138.75 C171.98 153.35, 158.62 167.42, 133.75 193.38 M133.75 193.38 C107.93 221.95, 107.82 220.86, 80.25 193.38 M133.75 193.38 C106.84 221.63, 107.37 222.71, 80.25 193.38 M80.25 193.38 C59.75 172.1, 39.62 152.14, 26.75 138.75 M80.25 193.38 C66.28 179.23, 51.53 162.95, 26.75 138.75 M26.75 138.75 C-0.44 110.55, -1.51 111.68, 26.75 83.25 M26.75 138.75 C-1.13 110.15, -2.24 112.81, 26.75 83.25 M26.75 83.25 C42.75 66.47, 61.12 48.87, 80.25 27.75 M26.75 83.25 C39.69 68.7, 53.63 55.22, 80.25 27.75 M80.25 27.75 C106.44 0.26, 108.79 -0.78, 133.75 27.75 M80.25 27.75 C107.54 1.35, 108.44 1.14, 133.75 27.75"
                  stroke="#1e1e1e" stroke-width="2" fill="none"></path>
      </g>
      <g stroke-linecap="round" transform="translate(146.32421875 15.953125) rotate(0 35.484375 35)">
            <path
                  d="M45 9 C49.09 10.51, 50.63 17.57, 61.97 27 C69.11 36.87, 70.62 38.64, 61.97 45 C56.67 51.75, 56.28 55.81, 45 61 C34.81 69.72, 39.21 70.15, 27 61 C21.17 57.21, 16.27 52.51, 9 45 C-1.34 38.79, 3.23 39.46, 9 27 C11.01 22.13, 20.96 17.02, 27 9 C37.35 2.09, 39.48 0.13, 45 9"
                  stroke="none" stroke-width="0" fill="#1e1e1e"></path>
            <path
                  d="M45 9 C50.69 12.37, 53.07 16.6, 61.97 27 M45 9 C49.38 14.07, 55.26 19.13, 61.97 27 M61.97 27 C72.15 34.43, 71.03 34.28, 61.97 45 M61.97 27 C71.08 34.21, 70.28 35.58, 61.97 45 M61.97 45 C56.97 49.13, 55.96 52.43, 45 61 M61.97 45 C58 48.15, 52.85 52.57, 45 61 M45 61 C34.75 70.58, 37.8 70.49, 27 61 M45 61 C37.52 68.23, 35.03 69.45, 27 61 M27 61 C22.02 55.16, 18.84 53.68, 9 45 M27 61 C21.09 55.71, 15.02 51.5, 9 45 M9 45 C1.11 34.08, -1.57 36.37, 9 27 M9 45 C-1.51 36.75, -1.99 34.19, 9 27 M9 27 C11.51 22.28, 15.72 19.34, 27 9 M9 27 C16.72 19.78, 24.25 12.93, 27 9 M27 9 C37.2 1.29, 34.33 -1.43, 45 9 M27 9 C37.12 -2.27, 37 2.09, 45 9"
                  stroke="#1e1e1e" stroke-width="2" fill="none"></path>
      </g>
      <g stroke-linecap="round"
            transform="translate(17.09375 14.353515625) rotate(0 35.484375 30.802734375)">
            <path
                  d="M45 7.75 C48.34 12.09, 52.06 13.24, 61.97 23.25 C69.38 30.45, 69.77 29.16, 61.97 38.75 C60.08 44.91, 52.41 47.74, 45 53.86 C33.02 58.98, 33.36 60.85, 27 53.86 C18.04 49.8, 15.73 42.69, 9 38.75 C2.99 28.78, -2 33.44, 9 23.25 C18.22 14.47, 20.83 13.73, 27 7.75 C34.67 0.93, 36.21 -2.19, 45 7.75"
                  stroke="none" stroke-width="0" fill="#1e1e1e"></path>
            <path
                  d="M45 7.75 C50.44 12.92, 57.4 19.12, 61.97 23.25 M45 7.75 C49.48 11.32, 53.45 15.99, 61.97 23.25 M61.97 23.25 C69.88 30.04, 69.64 31.61, 61.97 38.75 M61.97 23.25 C70.68 31.84, 69.24 31.73, 61.97 38.75 M61.97 38.75 C56.21 45.93, 50.12 48.56, 45 53.86 M61.97 38.75 C55.73 44.92, 49.89 49.2, 45 53.86 M45 53.86 C36.71 63.6, 36.37 63.37, 27 53.86 M45 53.86 C34.55 61.34, 36.44 62.2, 27 53.86 M27 53.86 C21.12 49.62, 14.83 42.88, 9 38.75 M27 53.86 C22.11 49.75, 17.13 44.69, 9 38.75 M9 38.75 C1.31 29.95, 1.65 30.8, 9 23.25 M9 38.75 C1.8 31.28, -2.24 29.66, 9 23.25 M9 23.25 C13.97 18.88, 22.65 12.87, 27 7.75 M9 23.25 C14.55 18.49, 19.43 15.15, 27 7.75 M27 7.75 C36.3 1.08, 36.84 0.86, 45 7.75 M27 7.75 C37.58 0.22, 37.75 0.57, 45 7.75"
                  stroke="#1e1e1e" stroke-width="2" fill="none"></path>
      </g>
      <g stroke-linecap="round"
            transform="translate(47.03125 94.94140625) rotate(0 12.474609375 14.103515625)">
            <path
                  d="M14.39 -0.15 C16.89 0.02, 20.03 1.98, 21.86 4.22 C23.68 6.46, 25.3 10.13, 25.34 13.29 C25.39 16.45, 23.84 20.76, 22.13 23.18 C20.42 25.6, 17.62 27.29, 15.08 27.81 C12.55 28.34, 9.27 27.78, 6.9 26.35 C4.54 24.92, 1.89 22.07, 0.87 19.23 C-0.14 16.39, -0.07 12.15, 0.83 9.33 C1.72 6.5, 3.97 3.86, 6.24 2.29 C8.5 0.72, 12.95 0.13, 14.41 -0.08 C15.88 -0.3, 15.06 0.76, 15.03 1 M15.86 0.82 C18.23 1.49, 21.07 3.78, 22.61 6.1 C24.16 8.41, 25.38 11.74, 25.13 14.7 C24.89 17.66, 23.13 21.64, 21.16 23.84 C19.18 26.03, 15.96 27.52, 13.26 27.88 C10.57 28.23, 7.23 27.7, 4.98 25.98 C2.72 24.26, 0.49 20.4, -0.26 17.56 C-1.02 14.72, -0.86 11.58, 0.44 8.93 C1.73 6.29, 4.92 3.05, 7.49 1.67 C10.06 0.29, 14.46 0.86, 15.86 0.67 C17.25 0.48, 16.03 0.3, 15.85 0.51"
                  stroke="none" stroke-width="0" fill="#ffec99"></path>
            <path
                  d="M12.07 -0.34 C14.64 -0.51, 18.66 1.21, 20.82 3.26 C22.98 5.32, 24.67 8.92, 25.02 11.97 C25.36 15.02, 24.22 18.98, 22.89 21.55 C21.57 24.12, 19.55 26.49, 17.06 27.37 C14.57 28.26, 10.5 27.96, 7.95 26.88 C5.41 25.8, 3.04 23.36, 1.79 20.87 C0.54 18.38, 0.01 14.91, 0.46 11.93 C0.91 8.95, 2.43 5.03, 4.48 2.97 C6.52 0.92, 11.32 0.07, 12.73 -0.4 C14.14 -0.87, 13.01 -0.13, 12.94 0.14 M11.64 -0.36 C13.98 -0.74, 17.78 0.53, 19.91 2.5 C22.04 4.47, 23.86 8.39, 24.41 11.46 C24.95 14.53, 24.51 18.28, 23.16 20.94 C21.8 23.6, 18.71 26.19, 16.27 27.4 C13.82 28.6, 10.79 29.09, 8.5 28.17 C6.21 27.24, 3.95 24.45, 2.51 21.85 C1.07 19.24, -0.51 15.67, -0.16 12.55 C0.2 9.42, 2.51 5.15, 4.65 3.08 C6.78 1, 11.4 0.46, 12.66 0.1 C13.92 -0.26, 12.29 0.72, 12.22 0.91"
                  stroke="#1e1e1e" stroke-width="2" fill="none"></path>
      </g>
      <g stroke-linecap="round"
            transform="translate(153.416015625 96.005859375) rotate(0 12.474609375 14.103515625)">
            <path
                  d="M11.99 0.5 C14.47 0.16, 17.81 1.17, 20 2.94 C22.18 4.7, 24.46 8.08, 25.1 11.08 C25.75 14.08, 25.21 18.31, 23.85 20.92 C22.48 23.54, 19.43 25.73, 16.92 26.75 C14.41 27.76, 11.32 27.96, 8.79 27.01 C6.27 26.07, 3.23 23.56, 1.76 21.08 C0.29 18.6, -0.47 15.11, -0.02 12.12 C0.42 9.12, 2.26 5.19, 4.43 3.09 C6.59 0.98, 11.53 -0.01, 12.98 -0.49 C14.42 -0.98, 13.1 -0.11, 13.08 0.16 M13.67 0.44 C16.32 0.73, 20.01 2.63, 21.96 4.94 C23.91 7.26, 25.32 11.32, 25.37 14.34 C25.43 17.37, 24.05 20.75, 22.29 23.09 C20.53 25.43, 17.33 27.88, 14.8 28.37 C12.26 28.86, 9.44 27.47, 7.06 26.03 C4.68 24.58, 1.7 22.38, 0.52 19.72 C-0.67 17.06, -0.97 12.91, -0.04 10.06 C0.89 7.21, 3.68 4.35, 6.11 2.63 C8.53 0.92, 13.03 0, 14.5 -0.24 C15.97 -0.48, 14.91 0.98, 14.9 1.17"
                  stroke="none" stroke-width="0" fill="#ffec99"></path>
            <path
                  d="M11.04 0.42 C13.5 -0.06, 17.39 0.8, 19.57 2.43 C21.75 4.06, 23.37 7.2, 24.14 10.2 C24.9 13.21, 25.29 17.69, 24.16 20.45 C23.03 23.22, 19.81 25.59, 17.38 26.8 C14.94 28.01, 12.02 28.46, 9.56 27.71 C7.1 26.95, 4.28 24.68, 2.64 22.28 C1.01 19.87, -0.5 16.28, -0.25 13.27 C0 10.27, 2.12 6.41, 4.14 4.23 C6.15 2.06, 10.55 0.91, 11.86 0.22 C13.16 -0.48, 12.03 -0.14, 11.97 0.07 M12.78 -0.36 C15.13 -0.24, 18.64 2.64, 20.65 4.69 C22.66 6.74, 24.6 9.13, 24.85 11.94 C25.11 14.75, 23.68 18.97, 22.17 21.57 C20.66 24.16, 18.17 26.62, 15.78 27.51 C13.39 28.41, 10.35 28.09, 7.81 26.93 C5.28 25.77, 1.93 23.21, 0.58 20.54 C-0.77 17.87, -1.03 13.81, -0.3 10.89 C0.44 7.97, 2.65 4.71, 4.99 3.02 C7.34 1.33, 12.3 1.17, 13.77 0.72 C15.24 0.28, 13.93 0.21, 13.82 0.33"
                  stroke="#1e1e1e" stroke-width="2" fill="none"></path>
      </g>
      <g stroke-linecap="round"
            transform="translate(153.75 26.93359375) rotate(0 25.341796875 23.85546875)">
            <path
                  d="M32.5 6 C38.21 9.84, 38.12 10.31, 44.18 18 C50.26 26.94, 47.23 21.56, 44.18 30 C38.01 30.67, 40.51 33.5, 32.5 41.71 C25.79 44.44, 27.54 50.62, 19.5 41.71 C15.52 36.31, 14.41 36.91, 6.5 30 C1.37 21.79, -0.18 22.6, 6.5 18 C10.7 14.07, 18.19 11.55, 19.5 6 C25.31 -0.06, 24.64 -1.97, 32.5 6"
                  stroke="none" stroke-width="0" fill="#ffec99"></path>
            <path
                  d="M32.5 6 C37.57 8.88, 41.49 13.05, 44.18 18 M32.5 6 C35.45 9.86, 38.33 11.62, 44.18 18 M44.18 18 C51.43 25.57, 50.22 24.41, 44.18 30 M44.18 18 C49.16 21.98, 49.2 22.32, 44.18 30 M44.18 30 C41.18 33.75, 38.44 38.06, 32.5 41.71 M44.18 30 C40.63 32.76, 37.31 36.3, 32.5 41.71 M32.5 41.71 C25.92 48.94, 27.22 49.07, 19.5 41.71 M32.5 41.71 C27.42 46.18, 27.5 48.06, 19.5 41.71 M19.5 41.71 C14.44 37.89, 10.03 32.89, 6.5 30 M19.5 41.71 C14.02 37.42, 8.54 32.33, 6.5 30 M6.5 30 C1.42 25.89, 1.75 23.61, 6.5 18 M6.5 30 C-1.35 25.35, 1.14 21.93, 6.5 18 M6.5 18 C9.79 13.71, 11.71 10.72, 19.5 6 M6.5 18 C9.97 14.18, 13.44 10.09, 19.5 6 M19.5 6 C24.31 -1.03, 26.99 -1.52, 32.5 6 M19.5 6 C26.24 -0.11, 25.39 -2.11, 32.5 6"
                  stroke="#1e1e1e" stroke-width="2" fill="none"></path>
      </g>
      <g stroke-linecap="round"
            transform="translate(28.232421875 20.703125) rotate(0 25.341796875 23.85546875)">
            <path
                  d="M32.5 6 C34.88 8.75, 36.51 9.24, 44.18 18 C51.56 26.27, 47.86 26.99, 44.18 30 C43.9 31, 36.87 38.16, 32.5 41.71 C23.42 44.39, 27.08 48.76, 19.5 41.71 C16.55 34.59, 8.16 33.95, 6.5 30 C-2.63 23.08, 2.23 23.08, 6.5 18 C9.52 15.31, 11.23 16.14, 19.5 6 C22.56 2.38, 24.45 0.72, 32.5 6"
                  stroke="none" stroke-width="0" fill="#ffec99"></path>
            <path
                  d="M32.5 6 C35.21 8.03, 37.47 12.55, 44.18 18 M32.5 6 C35.93 8.81, 38.43 12.24, 44.18 18 M44.18 18 C49.18 22.11, 51.02 22.99, 44.18 30 M44.18 18 C48.43 25.3, 49.08 23.33, 44.18 30 M44.18 30 C41.25 36.27, 34.14 39.56, 32.5 41.71 M44.18 30 C41.68 32.93, 38.86 35, 32.5 41.71 M32.5 41.71 C25.98 46.25, 26.11 47.71, 19.5 41.71 M32.5 41.71 C25.48 47.75, 26.75 47.91, 19.5 41.71 M19.5 41.71 C15.9 37.43, 11.19 36.69, 6.5 30 M19.5 41.71 C15.75 38.12, 11.54 35.43, 6.5 30 M6.5 30 C-0.85 23.24, 0.53 25.28, 6.5 18 M6.5 30 C-0.34 23.42, 1.39 24.34, 6.5 18 M6.5 18 C12.07 12.27, 16.1 9.71, 19.5 6 M6.5 18 C10.04 14.89, 11.75 13.7, 19.5 6 M19.5 6 C25.72 1.94, 25.41 -1.76, 32.5 6 M19.5 6 C25.26 -1.5, 24.93 -1.43, 32.5 6"
                  stroke="#1e1e1e" stroke-width="2" fill="none"></path>
      </g>
      <g stroke-linecap="round"
            transform="translate(32.712890625 26.9453125) rotate(0 19.654296875 16.9296875)">
            <path
                  d="M25 4.25 C27.09 8.07, 29.52 7.87, 34.31 12.75 C38.62 18.92, 41.37 18.28, 34.31 21.25 C28.78 22.28, 25.67 29.41, 25 29.61 C16.48 31.13, 19.84 32.12, 15 29.61 C12.52 27.85, 12.5 25.31, 5 21.25 C-1.74 15.68, 3.05 13.4, 5 12.75 C5.55 9.27, 11.2 6.68, 15 4.25 C16.66 2.4, 20.81 0.97, 25 4.25"
                  stroke="none" stroke-width="0" fill="#1e1e1e"></path>
            <path
                  d="M25 4.25 C28.56 7.67, 32.36 9.28, 34.31 12.75 M25 4.25 C27.95 7.49, 31.1 10.12, 34.31 12.75 M34.31 12.75 C40.55 16.49, 37.31 18.54, 34.31 21.25 M34.31 12.75 C38.75 17.42, 39.06 16.78, 34.31 21.25 M34.31 21.25 C30.05 24.83, 28.15 27.35, 25 29.61 M34.31 21.25 C31.49 23.39, 29.17 26.27, 25 29.61 M25 29.61 C18.27 35.8, 20.96 33.54, 15 29.61 M25 29.61 C18.17 32.34, 20.62 35.37, 15 29.61 M15 29.61 C11.93 26.66, 8.95 24.36, 5 21.25 M15 29.61 C12.13 28.05, 10.39 25.55, 5 21.25 M5 21.25 C-0.37 16.91, 0.8 17.91, 5 12.75 M5 21.25 C0.93 16.7, -0.37 14.84, 5 12.75 M5 12.75 C7.66 9.56, 13.28 6.76, 15 4.25 M5 12.75 C7.29 10.46, 9.28 8.75, 15 4.25 M15 4.25 C21.58 0.07, 18.74 -0.34, 25 4.25 M15 4.25 C18.76 0.79, 20.52 -1.09, 25 4.25"
                  stroke="#1e1e1e" stroke-width="2" fill="none"></path>
      </g>
      <g stroke-linecap="round"
            transform="translate(35.833984375 30.21875) rotate(0 16.962890625 12.138671875)">
            <path
                  d="M21.25 3.25 C25.39 7.38, 27.57 6.95, 29.68 9.75 C35.56 9.91, 35.35 14.24, 29.68 16.25 C25.9 18.27, 26.08 19.72, 21.25 21.03 C17.17 24.39, 19.87 21.79, 12.75 21.03 C9.14 19.84, 7.95 18.63, 4.25 16.25 C-1 10.73, 2.84 12.92, 4.25 9.75 C4.68 9.01, 9.27 4.67, 12.75 3.25 C13.66 -2.47, 17.87 -1.53, 21.25 3.25"
                  stroke="none" stroke-width="0" fill="#ffec99"></path>
            <path
                  d="M21.25 3.25 C23.02 6.13, 26.72 7.93, 29.68 9.75 M21.25 3.25 C23.43 4.65, 25.93 6.9, 29.68 9.75 M29.68 9.75 C34.52 12.23, 31.95 13.09, 29.68 16.25 M29.68 9.75 C34.52 14.59, 33.2 11.54, 29.68 16.25 M29.68 16.25 C25.91 18.65, 23.08 19.59, 21.25 21.03 M29.68 16.25 C26.06 17.73, 22.99 19.46, 21.25 21.03 M21.25 21.03 C15.93 24.44, 15.77 24.58, 12.75 21.03 M21.25 21.03 C19.24 22.88, 16.19 24.42, 12.75 21.03 M12.75 21.03 C9.48 20.39, 7.51 17.29, 4.25 16.25 M12.75 21.03 C9.98 18.91, 6.59 17.79, 4.25 16.25 M4.25 16.25 C-0.56 11.38, 0.5 12.67, 4.25 9.75 M4.25 16.25 C1.28 12.33, 2.1 12.88, 4.25 9.75 M4.25 9.75 C6.79 8.12, 7.93 7.99, 12.75 3.25 M4.25 9.75 C6.71 7.84, 8.84 5.86, 12.75 3.25 M12.75 3.25 C17.3 -1.19, 17.97 -1.73, 21.25 3.25 M12.75 3.25 C18.59 1.7, 17.03 -0.87, 21.25 3.25"
                  stroke="#1e1e1e" stroke-width="2" fill="none"></path>
      </g>
      <g stroke-linecap="round"
            transform="translate(160.216796875 33.86328125) rotate(0 19.654296875 16.9296875)">
            <path
                  d="M25 4.25 C26.84 4.3, 29.79 7, 34.31 12.75 C35.86 16.57, 38.23 18.98, 34.31 21.25 C34.33 24.32, 29.07 27.1, 25 29.61 C22.27 35.63, 17.59 31.03, 15 29.61 C9.29 25.78, 8.12 23.1, 5 21.25 C-3.26 14.09, -2.32 16.33, 5 12.75 C9.8 12.7, 11.41 10.97, 15 4.25 C20.71 -0.48, 17.69 0.65, 25 4.25"
                  stroke="none" stroke-width="0" fill="#1e1e1e"></path>
            <path
                  d="M25 4.25 C27.87 5.88, 29.25 9.11, 34.31 12.75 M25 4.25 C28.15 6.78, 31.43 9.6, 34.31 12.75 M34.31 12.75 C38.95 16.24, 39.73 17.1, 34.31 21.25 M34.31 12.75 C39.87 18.56, 40.5 14.77, 34.31 21.25 M34.31 21.25 C31.96 23.65, 27.13 26.74, 25 29.61 M34.31 21.25 C31.21 23.05, 29.27 26.45, 25 29.61 M25 29.61 C18.66 32.37, 19.15 35.08, 15 29.61 M25 29.61 C19.35 32.35, 22.12 32.56, 15 29.61 M15 29.61 C13.53 27.8, 11.07 24.46, 5 21.25 M15 29.61 C11.92 26.37, 8.07 24.15, 5 21.25 M5 21.25 C-1.4 18.21, 1.79 18.11, 5 12.75 M5 21.25 C-0.49 16.07, -2.06 15.28, 5 12.75 M5 12.75 C8.69 11.01, 12.92 7.66, 15 4.25 M5 12.75 C7.24 10.71, 9.97 9.33, 15 4.25 M15 4.25 C18.18 -0.81, 20.9 1.57, 25 4.25 M15 4.25 C20.27 0.75, 19.07 -1.37, 25 4.25"
                  stroke="#1e1e1e" stroke-width="2" fill="none"></path>
      </g>
      <g stroke-linecap="round"
            transform="translate(163.044921875 39.662109375) rotate(0 16.962890625 12.138671875)">
            <path
                  d="M21.25 3.25 C23.57 3.51, 25.6 6.25, 29.68 9.75 C34.61 13.76, 35.14 15.81, 29.68 16.25 C24.96 18.57, 21.76 21.61, 21.25 21.03 C17.71 26.03, 20.1 20.89, 12.75 21.03 C10.92 19.38, 7.99 18.2, 4.25 16.25 C0.32 11.84, 2.21 10.75, 4.25 9.75 C6.66 9.96, 8.6 5.72, 12.75 3.25 C19.14 -0.65, 15.87 -1.3, 21.25 3.25"
                  stroke="none" stroke-width="0" fill="#ffec99"></path>
            <path
                  d="M21.25 3.25 C25.1 4.69, 28.42 8.77, 29.68 9.75 M21.25 3.25 C23.06 4.96, 26.25 6.66, 29.68 9.75 M29.68 9.75 C35.1 11.68, 35.11 12.76, 29.68 16.25 M29.68 9.75 C31.98 11.07, 33.92 13.96, 29.68 16.25 M29.68 16.25 C26.79 16.76, 25.48 19.33, 21.25 21.03 M29.68 16.25 C28.19 17.35, 26.04 18.23, 21.25 21.03 M21.25 21.03 C16.43 25.02, 15.1 22.88, 12.75 21.03 M21.25 21.03 C14.84 24.52, 16.22 25.59, 12.75 21.03 M12.75 21.03 C9.66 19.23, 7.01 18.24, 4.25 16.25 M12.75 21.03 C9.85 19.16, 6.52 17.74, 4.25 16.25 M4.25 16.25 C1.24 12.75, 1.79 13.62, 4.25 9.75 M4.25 16.25 C0.93 15.07, -1.53 11.61, 4.25 9.75 M4.25 9.75 C7.45 6.71, 10.25 6.05, 12.75 3.25 M4.25 9.75 C7.86 6.85, 10.7 4.16, 12.75 3.25 M12.75 3.25 C17.84 -1.83, 17.36 -1.86, 21.25 3.25 M12.75 3.25 C17.48 -2.07, 17.1 -1.64, 21.25 3.25"
                  stroke="#1e1e1e" stroke-width="2" fill="none"></path>
      </g>
</svg>